<svg xmlns="http://www.w3.org/2000/svg" viewBox="0 0 531 300" title="CA.gov Logo" fill="#2F85B0"><path d="M316 122h5c10 0 21 4 31 8c1 1 3 1 4 2c1 0 1 0 2 1l22-57l21 53h12c14 0 27 2 39 5L405 12h-51l-43 111c1-1 3-1 5-1M150 299c32 0 55-6 76-18l5-11c-7 1-14 2-20 2h-3l-2-1c-5-1-12-5-19-11-3-2-7-6-11-11-8 2-16 3-26 3-60 1-103-42-103-102C47 92 92 47 150 47c32 0 61 13 87 39l19-47c-29-24-66-38-104-38C110 1 73 15 45 42C16 69 0 107 0 150c0 87 62 149 150 149"/><path fill="#B91F39" d="M181 94l-9 28h-31l24 17-8 27l24-16l24 16-8-28l23-17h-30"/><path fill="#693B17" d="M518 227c-1-8-7-25-13-30c3-8-1-11-3-14-1-1-5-3-7-3-6-10-20-18-39-24-12-4-27-6-44-6h-8c-15 1-38 4-44 4-2 0-8-3-15-5-8-3-17-6-24-6h-2c-6 1-21 10-27 13-4 2-16 7-20 10h-3c-9 3-15 13-18 15c0-1-4-6-8-6h-2c-6 2-5 7-5 9-1 0-3-2-6-2-1 0-2 0-4 1-6 3-3 9-4 11-2 3-10 10-12 15-1 2 0 8-1 10-2 6-16 17-17 19c0 1 3 5 8 8c4 3 9 6 12 7c8 0 25-3 29-4c1 0 3 1 6 1c2 1 5 1 8 1h3c4-1 7-3 9-5c4-4 6-8 10-10c3-1 7-2 11-2c2 0 3 0 5 1-7 12-5 27-7 30-3 2-5 5-6 7-6 9-6 16-9 18-1 0-2 1-3 1-3 0-7-1-10-1h-2c-3 1-12 9-9 11h40l8-7h20c2 0 2-3 10-8c10-4 5-22 17-37q4-3 5-3c4 0 11 8 37 8c26 0 32-9 36-9c2 0 5 3 5 4-12 20 18 42 15 43-1 0-4-2-8-2-2 0-4 0-6 1-5 2-9 8-5 9h41c1 0 1-3 1-6v-4c1-2 2-7 5-11c3-3 5-6 8-6c1 0 2 0 3 1c5 3 19 5 26 7c3 1 5 2 5 4c0 1-1 1-2 1h-1c-2 0-4-1-7-1-1 0-2 0-3 1-3 1-7 5-8 8c0 1 0 3 1 3h31c4 0 2-7 10-23c1-4-10-11-12-19c0-6-1-17-1-28"/><path fill="#326130" d="M150 299c32 0 55-6 76-18l5-11c-7 1-14 2-20 2h-3l-2-1c-5-1-12-5-19-11-3-2-7-6-11-11-8 2-16 3-26 3-42 0-74-20-91-51H8c19 60 72 98 142 98"/></svg>