<svg xmlns="http://www.w3.org/2000/svg" viewBox="0 0 7920 6120" font-weight="700" font-family="Arial-BoldMT, Arial"><defs><path id="use-0" d="M0 0h-572v381c0 25 21 46 46 46h526c25 0 46-21 46-46v-335c0-25-21-46-46-46"></path><g id="use-1"><circle cy="53" r="26"></circle><path d="M0 0c-35 0-64 29-64 64s9 37 22 49c11 10 26 16 42 16s31-6 42-16c14-12 22-29 22-49c0-35-29-64-64-64zm42 106c-1-13-13-24-26-24h-31c-14 0-25 10-26 24-11-11-18-26-18-42c0-33 27-59 59-59s59 27 59 59s-7 31-18 42h1"></path></g><g id="use-2"><path d="M0 0c0-21-17-38-38-38h-239c-21 0-38 17-38 38v9h315v-9"></path><path fill="#fff" d="M257 10h-572v381c0 25 21 46 46 46h526c25 0 46-21 46-46v-335c0-25-21-46-46-46"></path></g><g id="use-3"><circle cx="-29" cy="-152" r="23"></circle><circle cx="-86" cy="-152" r="23"></circle><circle cx="-144" cy="-152" r="23"></circle><rect height="46" rx="20" ry="20" width="414" x="11" y="-175"></rect><path d="M0 0h258c7 0 9-10 3-13-43-21-87-43-130-64h-6c-43 21-85 43-128 64-6 3-4 12 3 12m233 9h23v129h-23M187 8h23v129h-23M141 8h23v129h-23M95 8h23v129h-23M49 8h23v129h-23M2 8h23v129h-23m-29 9h314v23h-314m-26 12h366v23h-366"></path></g><g id="use-4"><path d="M0 0c23 0 42 19 42 42s-19 42-42 42s-42-19-42-42s19-42 42-42"></path><circle cy="42" r="42"></circle></g><path fill="#58595b" id="use-5" d="M0 0l-61-149l61 36l61-36-61 149"></path><path id="use-6" d="M0 0c-57 0-104 47-104 104s14 60 36 79c18 16 42 25 68 25s50-10 68-25c22-19 36-47 36-79c0-57-47-104-104-104zm68 172c-2-21-21-38-43-38h-50c-22 0-40 17-43 38-18-18-29-42-29-68c0-53 43-96 96-96s96 43 96 96s-11 51-29 68h2"></path><g id="use-7"><path stroke="#58595b" stroke-width="30" d="M0-491v385"></path><path fill="#58595b" d="M0 0l-61-150l61 36l61-36-61 150"></path></g><path id="use-8" d="M0 0h-163v109c0 7 6 13 13 13h150c7 0 13-6 13-13v-96c0-7-6-13-13-13"></path><g id="use-9"><circle cy="15" r="8"></circle><path d="M0 0c-10 0-18 8-18 18s2 11 6 14c3 3 7 4 12 4s9-2 12-4c4-3 6-8 6-14c0-10-8-18-18-18zm12 31c0-4-4-7-8-7h-9c-4 0-7 3-8 7-3-3-5-7-5-12c0-9 8-17 17-17s17 8 17 17s-2 9-5 12"></path></g><g id="use-10"><path d="M0 0c0-6-5-11-11-11h-68c-6 0-11 5-11 11v3h90v-3"></path><path fill="#fff" d="M74 3h-163v109c0 7 6 13 13 13h150c7 0 13-6 13-13v-96c0-7-6-13-13-13"></path></g><g id="use-11"><path stroke="#1c75bc" stroke-width="30" d="M0-624v519"></path><path fill="#1c75bc" d="M0 0l-61-149l61 36l61-36-61 149"></path></g></defs><g fill="#0e3a5e"><text font-size="89" x="6667" y="5707" _mstHash="36" _mstTextHash="597402">Departamento de California</text><text x="6667" y="5894" font-size="202" _mstHash="37" _mstTextHash="180648">Tecnología</text><rect x="6274" y="5613" width="323" height="323" rx="28" ry="28"></rect><circle cx="6435" cy="5775" r="142" fill="#fff"></circle><path d="M6508 5823h16v14h-16m-20-14h16v14h-16m-61 5h16v14h-16m41-14h16v14h-16m-20-14h16v14h-16m-21-33h16v14h-16m-20-14h16v14h-16m61-14h16v14h-16m-20-14h16v14h-16m40-32h16v14h-16m-20-14h16v14h-16m0-34h16v14h-16m-20 6h16v14h-16m0-34h16v14h-16m-61-14h16v14h-16m0-32h16v14h-16m20-14h16v14h-16m20-14h16v14h-16m21-14h16v14h-16m-82-32h16v14h-16m0-34h16v14h-16m-20-14h16v14h-16m20-32h16v14h-16m-20-14h16v14h-16m61-33h16v14h-16m-21-14h16v14h-16m-46 142h12v9h-12m25-11h12v9h-12m2-28h10v8h-10m-8 33h12v10h-12m10-70h10v8h-10m-22-8h10v8h-10m-4 11h11v10h-11m-24-9h11v10h-11m5-29h10v9h-10m3-29h10v9h-10m3-28h8v7h-8m0-25h8v7h-8m0-26h8v7h-8m0-25h8v7h-8m0-26h8v7h-8m20 48h8v7h-8m0 32h8v7h-8m0-27h8v7h-8m20-7h8v7h-8m0 12h8v7h-8m20 12h8v7h-8m0 11h8v7h-8m21 12h8v7h-8m-23-8h12v10h-12m-4 12h12v10h-12m23-12h10v9h-10m23-9h8v7h-8m21-7h8v7h-8m21-7h8v7h-8m62-27h8v7h-8m0-25h8v7h-8m0-43h8v7h-8m0 11h8v7h-8m-21-7h8v7h-8m0-26h8v7h-8m-20-7h8v7h-8m0-26h8v7h-8m-21-7h8v7h-8m40-6h7v6h-7m21-7h9v8h-9m2-27h9v8h-9m-22-8h9v8h-9m-21-8h9v8h-9m-20-8h8v7h-8m-20-7h8v7h-8m0-25h8v7h-8m19-7h9v7h-9m21-7h10v8h-10m21-8h10v8h-10m23-10h10v8h-10m5-28h10v9h-10m-24-8h10v9h-10m1-30h12v10h-12m-20-30h12v10h-12m-24-8h12v10h-12m-3 11h12v10h-12m22-12h12v10h-12m0 11h11v9h-11m-22-8h10v9h-10m-20-9h10v9h-10m1-27h8v7h-8m-20-7h8v7h-8m21-27h10v8h-10m-21-7h8v7h-8m-25-10h16v14h-16m-21-14h16v14h-16m105 157h34v29h-34m-81-86h31v28h-31m-64-142h34v31h-34m44 10h50v45h-50"></path><g stroke="#1c75bc" stroke-width="30" stroke-linecap="square" fill="none"><path d="M994 4097h5800m326 0h298"></path></g><path fill="#1c75bc" d="M888 4097l149 61-35-61l35-61-149 61"></path><text font-size="380" x="635" y="536" _mstHash="38" _mstTextHash="805714">Marco de Identificación Digital</text><path d="M363 345h-5c-6 0-11-5-11-11s5-11 11-11h5c6 0 11 5 11 11s-5 11-11 11m39-34c-2 0-5 0-6-2-6-5-20-12-38-12s-25 5-32 10c-5 3-12 2-15-3s-2-12 3-15c9-6 24-13 43-13s42 10 51 16c5 4 6 10 2 15-2 3-5 5-9 5h1m120 25c-5 0-10-3-11-9v-3c-2-6 2-12 8-13c6-1 12 2 13 8v3c2 6-2 12-8 13h-2m-2 94c-6 0-11-5-11-10c0-10-2-19-6-28-4-11-10-21-18-30-4-5-4-12 0-15c5-4 12-4 15 0c10 11 17 23 22 36c4 11 7 22 7 34s-4 11-10 12m-45-5c-4 0-8-2-10-6-2-4-4-8-7-11-3-4-6-7-9-10-5-4-5-11 0-15s11-5 15 0c4 4 8 8 12 13l9 15c3 5 0 12-5 15h-5v-2m25 99c-6 0-10-4-11-10c0-11-2-23-3-34c0-11 0-23-2-34c0-6 5-11 11-11s11 5 11 11c0 11 0 22 2 33c0 11 2 22 3 33c0 6-4 11-10 12m-56-53c-6 0-11-5-11-11s0-13-3-19c-2-7-5-13-9-19-3-5-2-12 3-15s12-2 15 3c5 8 9 16 12 25c3 8 4 17 4 25s-5 11-11 11m-13 115c-2 0-5 0-7-2-5-4-6-10-2-15c8-12 15-25 18-39c3-12 3-25 2-38c0-6 3-12 10-12s12 3 12 10c2 15 0 31-2 45-4 17-11 33-21 47-2 3-5 5-9 4m-61 12c-3 0-6 0-8-3-4-4-4-11 0-15c10-9 33-35 34-72c0-15-3-30-9-45s0-12 5-15c5-2 12 0 15 5c8 17 12 36 11 54c0 46-29 77-41 88-2 2-5 3-8 3m-52-1c-3 0-6 0-8-3-4-4-4-11 0-15c13-12 29-32 35-62c2-12 2-25 0-38c0-6 3-12 9-13s12 3 13 9c2 15 2 30 0 45-7 35-26 60-41 74-2 2-5 3-8 3m-43-20c-3 0-6 0-8-3-4-4-4-11 0-15c6-7 39-42 32-85-2-11-6-21-12-31-3-5-2-12 4-15s12-2 15 4c8 12 12 25 14 39c8 52-27 93-38 104s-5 3-8 3m-10-72c-4 0-8-2-10-6-6-14-11-28-15-43-6-25-7-50-5-76c0-6 6-10 12-10s10 6 10 12c-2 23-1 46 4 69c3 13 8 27 14 39c3 5 0 12-5 15h-5m-27 56c-3 0-7-2-9-4-17-22-29-46-36-73-6-22-9-44-7-67c0-6 5-11 11-10c6 0 11 5 10 12-1 20 1 41 7 60c6 24 17 45 32 65c4 5 3 12-2 15-2 2-4 2-7 2h1m-38-167c-6 0-11-5-11-11c0-11 0-22 4-33c3-10 7-20 13-30s10-7 15-3s7 10 3 15c-5 7-8 15-11 23-2 8-3 17-3 26s-5 11-11 11v2m238-114c-3 0-5-1-7-3-7-7-16-12-25-16-9-3-18-5-28-5-6 0-11-5-11-11s5-11 11-11c12 0 24 2 35 6c12 5 23 11 33 20c5 4 5 11 0 15-2 2-5 4-8 4m-198 33c-3 0-5 0-7-3-5-4-5-11-1-15c11-13 24-24 39-33c20-13 43-21 67-24c6 0 12 3 12 9s-3 11-9 12c-21 3-41 10-59 21-13 8-24 18-34 29-2 2-5 4-8 4m4-61c-3 0-6-1-8-4-4-4-4-11 0-15c18-17 57-46 114-50c62-5 107 23 124 35c5 4 6 10 2 15-3 5-10 6-15 2-15-11-55-35-110-31-50 4-85 29-101 44-2 2-5 3-8 3h2"></path><g fill="#fbae18"><path d="M356 449c-4 0-9-2-12-5l-78-78c-3-3-5-8-5-12s2-9 5-12l10-9c7-6 17-6 24 0l50 50c2 2 6 2 8 0l128-128c3-3 8-5 12-5s9 2 12 5l12 11c7 7 7 17 0 24l-154 154c-3 3-8 5-12 5zm-69-110c-1 0-3 0-4 2l-10 9c-1 0-2 3-2 4s0 3 2 4l78 78c2 2 6 2 8 0l154-154c2-2 2-6 0-8l-12-11c-2-2-6-2-8 0l-128 128c-3 3-8 5-12 5s-9-2-12-5l-50-50c-1 0-3-2-4-2m-17 7c3-3 6-6 10-9c5-4 12-4 16 0l50 50s12 5 16 0l128-128c5-5 12-5 16 0c4 4 8 8 12 11c5 5 5 12 0 16l-154 154c-5 5-12 5-16 0l-78-78c-5-5-5-12 0-16"></path></g></g><path d="M1129 4543c-18-23-51-26-72-7l-63 56-14 13c-28-54-22-51-77-152-26-48-68-71-122-70-67 2-134 2-200 0-45-1-83 16-108 53-22 31-41 66-52 103-37 121-40 247-33 374c0 10 3 20 4 29c4 32 24 55 48 51c29-5 44-23 44-56c0-87 0-173 6-260c2-41 15-81 23-121c3 0 7 2 10 2v937c0 45 29 73 71 73s75-32 75-86v-564c34-8 27 17 27 33v535c0 54 29 83 77 82c42 0 69-34 69-88v-922c2 0 5-1 7-2c5 16 8 20 22 53c35 84 16 24 42 101c2 6 5 13 10 19c18 23 45 11 67-8l10-9l120-107c22-20 21-45 12-62h-3m-448-196c71 0 131-65 131-142s-58-145-131-146c-74 0-132 62-132 144s57 144 132 144"></path><g stroke="#000" stroke-width="10"><g fill="#fff"><use href="#use-0" x="2658" y="1589"></use><use href="#use-0" x="2612" y="1538"></use></g><use href="#use-2" x="2309" y="1478"></use></g><use href="#use-1" x="2105" y="1541"></use><use href="#use-1" x="2105" y="1719"></use><path d="M2265 1791h111v18h-111m0-50h234v18h-234m0-178h111v18h-111m0-50h234v18h-234"></path><g stroke="#000" stroke-width="10"><g stroke-width="20" fill="none"><path d="M2181 1783l21 21l40-40m-61-175l21 21l40-40"></path></g><g fill="#fff"><use href="#use-0" x="3502" y="1589"></use><use href="#use-0" x="3456" y="1538"></use></g><use href="#use-2" x="3153" y="1478"></use></g><use href="#use-1" x="2950" y="1541"></use><use href="#use-1" x="2950" y="1719"></use><path d="M3110 1791h111v18h-111m0-50h234v18h-234m0-178h111v18h-111m0-50h234v18h-234"></path><g stroke="#000" stroke-width="10"><g stroke-width="20" fill="none"><path d="M3026 1783l21 21l40-40m-61-175l21 21l40-40"></path></g><g fill="#fff"><use href="#use-0" x="4420" y="1342"></use><use href="#use-0" x="4375" y="1291"></use></g><use href="#use-2" x="4072" y="1231"></use></g><use href="#use-1" x="3868" y="1294"></use><use href="#use-1" x="3868" y="1472"></use><use href="#use-1" x="4131" y="1294"></use><use href="#use-1" x="4131" y="1472"></use><path d="M4229 1543h44v18h-44m0-50h92v18h-92m-281 14h44v18h-44m0-50h92v18h-92m281-177h44v18h-44m0-50h92v18h-92m-281 14h44v18h-44m0-50h92v18h-92"></path><g stroke="#000" stroke-width="10"><g fill="#fff"><use href="#use-0" x="5236" y="1342"></use><use href="#use-0" x="5190" y="1291"></use></g><use href="#use-2" x="4887" y="1231"></use></g><use href="#use-1" x="4683" y="1294"></use><use href="#use-1" x="4683" y="1472"></use><use href="#use-1" x="4946" y="1294"></use><use href="#use-1" x="4946" y="1472"></use><path d="M5044 1543h44v18h-44m0-50h92v18h-92m-280 14h44v18h-44m0-50h92v18h-92m280-177h44v18h-44m0-50h92v18h-92m-280 14h44v18h-44m0-50h92v18h-92"></path><g stroke="#000" stroke-width="10"><path d="M1504 4760h-426c-25 0-45 20-45 45v29h515v-30c0-24-20-44-44-44"></path><path fill="#fbae18" d="M1033 4834v951c0 33 27 60 60 60h396c33 0 60-27 60-60v-951h-516"></path><circle cx="1290" cy="5750" r="46" fill="none"></circle></g><g fill="#fff"><circle cx="1179" cy="4797" r="17"></circle><path d="M1231 4779h169c10 0 17 8 17 17c0 10-8 17-17 17h-169c-10 0-17-8-17-17c0-10 8-17 17-17"></path><g stroke="#fbae18" stroke-width="10" fill="#0e3a5e"><rect x="1073" y="5236" width="435" height="265" rx="38" ry="38"></rect><rect x="1073" y="5289" width="435" height="265" rx="38" ry="38"></rect><rect x="1073" y="5340" width="435" height="265" rx="38" ry="38"></rect></g><use href="#use-4" x="1290" y="5412"></use><path d="M1290 5370c-57 0-102 46-102 102s14 59 36 77c18 15 41 25 67 25s49-10 67-25c22-19 36-47 36-77c0-57-46-102-102-102h-2zm67 170c-2-21-21-38-42-38h-49c-22 0-40 17-42 38-17-17-28-41-28-67c0-52 42-95 95-95s95 42 95 95s-11 50-28 67h-1"></path><g fill="#0e3a5e" font-size="129" text-anchor="middle"><text x="1292" y="4978" _mstHash="39" _mstTextHash="75179">Móvil</text><text x="1292" y="5133" _mstHash="40" _mstTextHash="93223">Cartera</text><path fill="none" stroke-width="30" stroke="#58595b" d="M679 3407v-435"></path><path fill="#58595b" d="M679 2866l61 149-61-35-61 35l61-149"></path></g></g><g fill="none"><g stroke="#58595b" stroke-width="30"><g stroke-linecap="square"><path d="M7120 2662h298m-5496 0h4872"></path></g><path d="M679 1045v1169"></path></g><use href="#use-5" x="679" y="2319"></use><g stroke="#58595b" stroke-width="30"><path d="M4973 1045v195m-862-195v195m-853 129v114m-856-114v114"></path><g stroke-linecap="square"><path d="M4581 1045h390m-3916 324h1470M679 1045h3542"></path><rect x="5457" y="3355" width="648" height="451" rx="36" ry="36" stroke="#231f20" stroke-width="10"></rect></g></g></g><use href="#use-3" x="5649" y="3555"></use><g fill="none"><use href="#use-7" x="5781" y="3153"></use><path stroke-width="30" stroke="#1c75bc" d="M5781 3812v291"></path><text text-anchor="middle" fill="#231f20" font-size="130" x="5781" y="3287" _mstHash="41" _mstTextHash="22828">FTB</text><path stroke-width="30" stroke="#1c75bc" d="M3325 5104v149"></path><rect x="3000" y="3355" width="648" height="451" rx="36" ry="36" stroke="#231f20" stroke-width="10"></rect></g><use href="#use-3" x="3193" y="3555"></use><rect x="3114" y="4486" width="442" height="269" rx="38" ry="38" fill="#0e3a5e"></rect><g fill="#fff"><use href="#use-4" x="3335" y="4560"></use><use href="#use-6" x="3335" y="4517"></use><g fill="none"><path stroke-width="30" stroke="#58595b" d="M3325 2662v385"></path><use href="#use-5" x="3325" y="3152"></use><path stroke-width="30" stroke="#1c75bc" d="M3325 3806v518"></path><path fill="#1c75bc" d="M3325 4430l-61-149l61 35l61-35-61 149"></path><g fill="#231f20" font-size="130" text-anchor="middle"><text x="3325" y="3287" _mstHash="42" _mstTextHash="31889">CDPH</text><text x="3325" y="4907" _mstHash="43" _mstTextHash="75569">Vacuna</text><text x="3325" y="5062" _mstHash="44" _mstTextHash="136123">Historial</text><text font-size="158" x="660" y="5750" _mstHash="45" _mstTextHash="48347">J. Doe</text></g><path stroke-width="30" stroke="#1c75bc" d="M4143 5104v149"></path><rect x="3819" y="3355" width="648" height="451" rx="36" ry="36" stroke="#231f20" stroke-width="10"></rect></g></g><use href="#use-3" x="4012" y="3555"></use><rect x="3922" y="4486" width="442" height="269" rx="38" ry="38" fill="#0e3a5e"></rect><g fill="#fff"><use href="#use-4" x="4143" y="4560"></use><use href="#use-6" x="4143" y="4517"></use><g fill="none"><path stroke-width="30" stroke="#58595b" d="M4143 2662v231"></path><path fill="#58595b" d="M4143 2999l-61-149l61 35l61-35-61 149"></path><use href="#use-11" x="4143" y="4430"></use><g fill="#231f20" font-size="130" text-anchor="middle"><text x="4143" y="3131" _mstHash="46" _mstTextHash="252746">Junta Estatal de</text><text x="4143" y="3287" _mstHash="47" _mstTextHash="234364">Cosmetología</text><text x="4143" y="4907" _mstHash="48" _mstTextHash="234364">Cosmetología</text><text x="4143" y="5062" _mstHash="49" _mstTextHash="109122">Licencia</text></g><path stroke-width="30" stroke="#1c75bc" d="M4962 4962v291"></path><rect x="4638" y="3355" width="648" height="451" rx="36" ry="36" stroke="#231f20" stroke-width="10"></rect></g></g><use href="#use-3" x="4831" y="3555"></use><rect x="4741" y="4486" width="442" height="269" rx="38" ry="38" fill="#0e3a5e"></rect><g fill="#fff"><use href="#use-4" x="4962" y="4560"></use><use href="#use-6" x="4962" y="4517"></use><g fill="none"><use href="#use-7" x="4962" y="3153"></use><use href="#use-11" x="4962" y="4430"></use><g fill="#231f20" font-size="130"><text x="4813" y="3287" _mstHash="50" _mstTextHash="24258">DMV</text><text x="4823" y="4907" _mstHash="51" _mstTextHash="25883">mDL</text></g><path stroke-width="30" stroke="#1c75bc" d="M6599 4962v291"></path><rect x="6275" y="3355" width="648" height="451" rx="36" ry="36" stroke="#231f20" stroke-width="10"></rect></g></g><use href="#use-3" x="6468" y="3555"></use><rect x="6378" y="4486" width="442" height="269" rx="38" ry="38" fill="#0e3a5e"></rect><g fill="#fff"><use href="#use-4" x="6599" y="4560"></use><use href="#use-6" x="6599" y="4517"></use><g fill="none"><use href="#use-7" x="6599" y="3153"></use><use href="#use-11" x="6599" y="4430"></use><g fill="#231f20" font-size="130" text-anchor="middle"><text x="6599" y="3287" _mstHash="52" _mstTextHash="323336">Parques estatales</text><text x="6599" y="4907" _mstHash="53" _mstTextHash="319735">Paso de los Parques</text></g><rect x="7094" y="3355" width="648" height="451" rx="36" ry="36" stroke="#231f20" stroke-width="10"></rect></g></g><use href="#use-3" x="7287" y="3555"></use><rect x="7197" y="4486" width="442" height="269" rx="38" ry="38" fill="#0e3a5e"></rect><g fill="#fff"><use href="#use-4" x="7418" y="4560"></use><use href="#use-6" x="7418" y="4517"></use><g fill="none"><use href="#use-7" x="7418" y="3153"></use><use href="#use-11" x="7418" y="4430"></use><path stroke-width="30" stroke="#1c75bc" d="M7418 4960v291"></path><g fill="#58595b" font-size="100"><g fill="#231f20" font-size="130"><text text-anchor="middle" x="7418" y="3287" _mstHash="54" _mstTextHash="105690">Agencia X</text><text x="7059" y="4907" _mstHash="55" _mstTextHash="171041">Credencial X</text></g><text x="3110" y="5400" _mstHash="56" _mstTextHash="485524">Credenciales digitales</text><text x="1093" y="4218" _mstHash="57" _mstTextHash="456638">Servicios y beneficios</text><text x="880" y="3662" _mstHash="58" _mstTextHash="475930">Solicitud de servicios,</text><text x="880" y="3782" _mstHash="59" _mstTextHash="561899">Beneficios o credenciales</text><text x="890" y="3215" _mstHash="60" _mstTextHash="743925">Solicitud de identificación o</text><text x="890" y="3335" _mstHash="61" _mstTextHash="404859">Datos de elegibilidad</text><text x="2025" y="2493" _mstHash="62" _mstTextHash="652353">Identificación minimizada &amp;</text><text x="2025" y="2613" _mstHash="63" _mstTextHash="404859">Datos de elegibilidad</text><text x="733" y="1164" _mstHash="64" _mstTextHash="310180">Datos de ID en bruto</text><text x="1106" y="1483" _mstHash="65" _mstTextHash="336596">Elegibilidad Bruta</text><text x="1106" y="1603" _mstHash="66" _mstTextHash="60723">Datos</text><g fill="#231f20" font-size="130"><text text-anchor="middle" x="4103" y="1942" _mstHash="67" _mstTextHash="122278">Login.Gov</text><text x="2150" y="2189" _mstHash="68" _mstTextHash="112502">Calfresh</text><g text-anchor="middle"><text x="3200" y="2167" _mstHash="69" _mstTextHash="196534">Elegibilidad</text><text x="3200" y="2322" _mstHash="70" _mstTextHash="155298">Proveedor X</text></g><text x="4572" y="1942" _mstHash="71" _mstTextHash="236873">Proveedor de ID X</text></g></g></g></g><g stroke="#58595b" stroke-width="30" stroke-linecap="square" fill="none"><path d="M7007 2662h37m-155 0h37M4443 1045h37m-155 0h37"></path><g stroke="#1c75bc"><path d="M1691 5253h5103m213-1156h37m-155 0h37"></path></g></g><g fill="#1c75bc"><path d="M1586 5253l149 61-36-61l36-61-149 61"></path><g fill="none"><g stroke="#1c75bc" stroke-width="30" stroke-linecap="square"><path d="M7007 5253h37m-155 0h37m194 0h298"></path><rect x="448" y="2382" width="1474" height="429" rx="87" ry="87" fill="#fbae18" stroke="#0e3a5e" stroke-width="10"></rect></g><g fill="#0e3a5e"><g font-size="129"><text x="820" y="2557" _mstHash="72" _mstTextHash="154310">California</text><text x="820" y="2712" _mstHash="73" _mstTextHash="337077">Puerta de Identidad</text><rect x="490" y="2441" width="311" height="311" rx="36" ry="36"></rect></g><g fill="#fff"><path d="M785 2608h-67l9-8c-3-3-6-5-9-8h67l9 7-9 9m-213 0h-67c3-3 7-6 10-9-3-2-7-5-10-7h67c3 3 7 5 10 8-3 3-7 6-10 9m174 18c-6 51-49 90-101 90s-95-39-101-90h-15c6 59 56 105 116 105s111-46 116-105h-15m-202-56c6-51 49-90 101-90s95 39 101 90h16c-6-59-56-105-116-105s-110 46-116 105h15m152 26c0-5 0-11-4-14-6-5-6-11-5-17v-13c0-15-10-28-25-31-9-2-19-2-28 0-18 2-27 15-27 33v17s-2 4-3 5c-8 5-11 11-11 20v49c0 16 8 23 22 23h61c13 0 22-9 22-22v-50h-2zm-78-50c0-9 7-14 16-15c8-1 17-1 25 0c10 1 17 10 17 20v22h-57v-27zm45 55c0 10-8 18-18 18s-18-8-18-18s8-18 18-18s18 8 18 18zm-19 61c-13 0-25-6-32-15c2-14 13-24 27-24h10c14 0 26 11 27 24-8 9-19 15-32 15"></path><path fill="none" stroke-width="30" stroke="#58595b" d="M679 3523h1320"></path><path fill="#58595b" d="M2105 3523l-149 61l35-61-35-61l149 61"></path></g></g><g stroke="#58595b" stroke-width="30" stroke-linecap="square"><path d="M2981 3407h-2302m0 116v449"></path></g></g><circle cx="676" cy="3748" r="155"></circle><g fill="#fff" font-size="216"><text x="623" y="3823" _mstHash="74" _mstTextHash="4459">1</text><circle cx="677" cy="3192" r="155" fill="#1c75bc"></circle><text x="623" y="3267" _mstHash="75" _mstTextHash="4550">2</text><circle cx="664" cy="1934" r="156" fill="#1c75bc"></circle><text x="563" y="2009" _mstHash="76" _mstTextHash="4641">3</text><text font-size="154" x="683" y="2009" _mstHash="77" _mstTextHash="8827">a</text><path fill="none" stroke-width="30" stroke="#58595b" d="M1055 1369v845"></path><use href="#use-5" x="1055" y="2319"></use><circle cx="1044" cy="1934" r="156" fill="#1c75bc"></circle><text x="942" y="2009" _mstHash="78" _mstTextHash="4641">3</text><text font-size="154" x="1062" y="2009" _mstHash="79" _mstTextHash="8918">b</text><circle cx="2900" cy="2649" r="155" fill="#1c75bc"></circle><text x="2821" y="2723" _mstHash="80" _mstTextHash="4732">4</text><circle cx="2903" cy="4097" r="155" fill="#1c75bc"></circle><text x="2807" y="4172" _mstHash="81" _mstTextHash="4823">5</text><text font-size="154" x="2928" y="4172" _mstHash="82" _mstTextHash="8827">a</text><circle cx="2922" cy="5253" r="155" fill="#1c75bc"></circle><text x="2826" y="5327" _mstHash="83" _mstTextHash="4823">5</text><text font-size="154" x="2947" y="5327" _mstHash="84" _mstTextHash="8918">b</text></g><g stroke="#58595b" stroke-width="30" stroke-linecap="square" fill="none"><path d="M2730 1369h37m-155 0h37m219 0h390"></path><rect x="1938" y="4907" width="672" height="660" rx="38" ry="38" fill="#fbae18" stroke="#231f20" stroke-width="10"></rect></g><g fill="#0e3a5e"><g font-size="129"><text x="1973" y="5525" _mstHash="85" _mstTextHash="22776">API</text><text x="1973" y="5383" _mstHash="86" _mstTextHash="116363">Emisión</text><rect x="1967" y="4938" width="310" height="310" rx="36" ry="36"></rect></g><g fill="#fff"><path d="M2162 5117c0-4-1-9-4-11-4-4-4-8-4-13v-10c0-12-8-22-19-24-7-1-15-1-22 0-14 2-21 12-21 26v13s-1 3-2 4c-6 4-9 9-9 15v38c0 12 6 18 18 18h47c10 0 17-7 17-17v-39h-1zm-61-38c0-7 6-11 12-12h19c8 1 13 8 13 16v17h-45v-21h1zm36 42c0 8-6 14-14 14s-14-6-14-14s6-14 14-14s14 6 14 14zm-15 48c-10 0-19-5-25-12c1-11 10-19 21-19h8c11 0 20 8 21 19-6 7-15 12-25 12m90-183h-181c-19 0-35 15-35 35v151c0 19 16 35 35 35h181c19 0 35-15 35-35v-151c0-19-16-35-35-35zm-181 12h181c12 0 21 9 23 20-6-5-14-9-23-9h-181c-9 0-17 4-23 9c2-11 11-20 23-20zm205 42c-6-5-14-9-23-9h-181c-9 0-17 4-23 9c2-11 11-20 23-20h181c12 0 21 9 23 20zm0 87v45c0 13-11 23-23 23h-181c-13 0-23-10-23-23v-106c0-13 11-23 23-23h181c13 0 23 10 23 23v62"></path><g fill="#231f20" font-size="82"><text fill="#58595b" font-size="116" x="6040" y="271" _mstHash="87" _mstTextHash="92430">Leyenda</text><text x="6248" y="479" _mstHash="88" _mstTextHash="156260">Individual</text><text x="6244" y="1146" _mstHash="89" _mstTextHash="92781">Digital</text><text x="6244" y="1245" _mstHash="90" _mstTextHash="151593">Credencial</text><text x="6334" y="1445" _mstHash="91" _mstTextHash="47892">Data &amp;</text><text x="6334" y="1544" _mstHash="92" _mstTextHash="207493">Información</text><text x="6334" y="1759" _mstHash="93" _mstTextHash="607607">Orden de interacciones en el</text><text x="6334" y="1858" _mstHash="94" _mstTextHash="608413">Secuencia de verificación</text><text x="7178" y="1457" _mstHash="95" _mstTextHash="162734">Servicios y</text><text x="7178" y="1556" _mstHash="96" _mstTextHash="154882">Beneficios</text><g font-size="55"><text x="6786" y="589" _mstHash="97" _mstTextHash="759148">Funciones asociadas incluidas,</text><text x="6786" y="655" _mstHash="98" _mstTextHash="860067">Políticas y artefactos digitales</text><text x="6786" y="721" _mstHash="99" _mstTextHash="807989">desarrollado o gestionado por CDT</text><text x="6204" y="589" _mstHash="100" _mstTextHash="325052">Buscar servicios o</text><text x="6204" y="655" _mstHash="101" _mstTextHash="417313">beneficios del estado</text><text x="6204" y="721" _mstHash="102" _mstTextHash="442481">agencias en California</text></g><text x="6242" y="918" _mstHash="103" _mstTextHash="256828">Entidad estatal</text><text font-size="55" x="6242" y="984" _mstHash="104" _mstTextHash="263601">Sitio web / API / App</text><text x="7008" y="1152" _mstHash="105" _mstTextHash="555594">Proveedor de elegibilidad</text><g font-size="55"><text x="7008" y="1218" _mstHash="106" _mstTextHash="390533">Verifica atributos o</text><text x="7008" y="1284" _mstHash="107" _mstTextHash="475839">Matrícula en programas</text></g></g></g></g></g><path d="M6210 477c-5-5-12-6-18-2l-15 13-4 3c-7-12-5-12-19-35-6-11-17-16-30-16h-49c-11 0-20 4-27 12-5 7-10 15-13 24-9 28-10 57-8 86v7c0 7 6 12 12 12s11-5 11-13c0-20 0-40 2-60c0-9 4-19 6-28h2v215c0 10 7 17 17 17s18-7 18-20v-129c8-2 7 4 7 8v123c0 12 7 19 19 19s17-8 17-20v-211h2c0 4 2 5 5 12c9 19 4 5 10 23c0 2 0 3 2 4c5 5 11 2 17-2l3-2l30-25c5-5 5-10 3-14m-110-46c17 0 32-15 32-33s-14-33-32-33s-32 14-32 33s14 33 32 33"></path><g fill="#231f20" font-size="55"><text font-size="82" x="7008" y="907" _mstHash="108" _mstTextHash="698425">Proveedor de identificación</text><text x="7008" y="973" _mstHash="109" _mstTextHash="867243">Verifica la identidad, puede ser un</text><text x="7008" y="1039" _mstHash="110" _mstTextHash="549627">Entidad pública o privada</text></g><g stroke="#000" stroke-width="10"><g fill="#fff"><use href="#use-8" x="6954" y="898"></use><use href="#use-8" x="6941" y="883"></use></g><use href="#use-10" x="6854" y="866"></use></g><use href="#use-9" x="6796" y="884"></use><use href="#use-9" x="6796" y="935"></use><use href="#use-9" x="6871" y="884"></use><use href="#use-9" x="6871" y="935"></use><path d="M6899 956h12v5h-12m0-15h26v5h-26m-80 5h12v5h-12m0-15h26v5h-26m80-50h12v5h-12m0-14h26v5h-26m-80 4h12v5h-12m0-14h26v5h-26"></path><rect x="6015" y="857" width="197" height="137" rx="18" ry="18" fill="none" stroke="#231f20" stroke-width="10"></rect><circle cx="6065" cy="872" r="7"></circle><circle cx="6048" cy="872" r="7"></circle><circle cx="6030" cy="872" r="7"></circle><path d="M6074 918h78c2 0 3-3 0-4-13-7-26-13-40-19h-2c-13 7-26 13-39 19-2 0 0 4 0 4h3m71 2h7v39h-7m-14-39h7v39h-7m-14-39h7v39h-7m-14-39h7v39h-7m-14-39h7v39h-7m-14-39h7v39h-7m-10 3h95v7h-95m-7 4h111v7h-111m26-115h112c4 0 7 3 7 7c0 4-3 7-7 7h-112c-4 0-7-3-7-7c0-4 3-7 7-7"></path><rect x="6015" y="1103" width="197" height="129" rx="38" ry="38" fill="#0e3a5e"></rect><g fill="#fff"><path d="M6114 1138c10 0 19 9 19 20s-8 20-19 20s-19-9-19-20s8-20 19-20"></path><ellipse cx="6114" cy="1158" rx="19" ry="20"></ellipse><path d="M6114 1117c-26 0-46 22-46 50s6 28 16 38c8 8 19 12 30 12s22-5 30-12c10-9 16-23 16-38c0-27-21-50-46-50zm30 83c0-10-9-18-19-18h-22c-10 0-18 8-19 18-8-8-13-20-13-33c0-25 19-46 43-46s43 21 43 46s-5 24-13 33"></path></g><g stroke-width="10"><rect x="5963" y="314" width="1773" height="1638" rx="120" ry="120" fill="none" stroke="#58595b"></rect><rect x="6775" y="382" width="888" height="143" rx="38" ry="38" fill="#fbae18" stroke="#231f20"></rect></g><text fill="#0e3a5e" font-size="82" x="6816" y="479" _mstHash="111" _mstTextHash="529152">Servicios Tecnológicos</text><g fill="none"><g stroke="#939598" stroke-width="10"><path d="M6039 1634h1624m-1624-305h1624M6039 774h1624"></path><path stroke-width="30" stroke="#58595b" d="M6027 1469h134"></path></g><path fill="#58595b" d="M6267 1469l-150 61l36-61-36-61l150 61"></path><path stroke-width="30" stroke="#1c75bc" d="M6882 1478h134"></path><path fill="#1c75bc" d="M7122 1478l-150 61l36-61-36-61l150 61"></path><path stroke="#939598" stroke-width="10" d="M6731 380v394"></path><circle cx="6140" cy="1788" r="104" fill="#1c75bc"></circle><text font-size="144" fill="#fff" x="6105" y="1838" _mstHash="112" _mstTextHash="4459">1</text></g><g stroke="#000" stroke-width="10"><g fill="#fff"><use href="#use-8" x="6952" y="1136"></use><use href="#use-8" x="6939" y="1121"></use></g><use href="#use-10" x="6852" y="1104"></use></g><use href="#use-9" x="6794" y="1122"></use><use href="#use-9" x="6794" y="1173"></use><path d="M6840 1193h32v5h-32m0-14h67v5h-67m0-51h32v5h-32m0-14h67v5h-67"></path><g stroke="#000" stroke-width="8" fill="none"><path d="M6816 1191l6 6l12-12m-18-50l6 6l12-12"></path></g></svg>