<svg xmlns="http://www.w3.org/2000/svg" viewBox="0 0 887 938">
  <path fill="#066b99" d="M120 295c6 0 13-3 16-6c0 0 82-82 187-95c13-3 22-13 22-25s-16-19-28-19c-117 16-206 98-209 101-13 9-16 25-6 35c6 6 13 9 19 9zm523 272c-13 3-22 16-19 32c0 0 13 57 6 111-3 13 6 25 22 28h3c13 0 22-9 25-22c9-63-6-127-6-130-3-13-16-22-32-19zM35 466q3 0 0 0c16 0 25-9 25-25c3-51 22-76 22-76c9-9 9-25-3-35-9-9-25-9-35 0-3 3-35 38-35 108c3 16 13 25 25 28zm92-295c6 0 9-3 16-6c76-57 228-133 424-25c9 3 32 13 41 0c16-19-6-35-13-41-168-89-339-80-484 31-9 9-13 19-3 32c3 6 13 9 19 9zm411 45c13-16 0-25-9-32-22-16-73-38-114-38s-25 6-28 19s6 25 19 25c41 3 60 9 89 28c9 3 35 13 44-3zM279 589c-3-6-9-28-28-41s-28 6-25 22c3 9 6 22 9 32c6 19 13 41 13 63c0 47-51 114-66 136-9 9-6 25 3 32c3 3 9 6 16 6s13-3 16-6s76-89 79-165c0-32-9-57-16-79zm234-66c-16 9-9 35-6 41c19 32 22 57 22 57c3 9 16 22 28 19c16-3 16-19 16-32c0 0-3-32-28-76-3-9-16-22-32-9zm-67 76c-13 13-6 32-6 35c19 66 6 117-38 209-6 13 0 25 9 32c3 0 6 3 9 3c9 0 16-6 22-13c51-108 66-171 35-253v-3c-3-13-19-22-32-9zm288-89c-13-47-32-85-54-117-16-19-28-25-41-13s-6 35 3 51c19 25 32 54 41 92c3 13 16 22 32 19s22-19 19-32zM370 627c-19 0-25 19-25 32c0 19 0 41-3 63-13 66-73 139-76 139-9 9-6 25 3 32c3 3 9 6 16 6s13-3 19-9c3-3 66-82 85-161c3-25 6-51 3-76c0-9-3-25-22-25zm257-133c-6-13-13-22-19-28-6-9-22-19-35-6-13 13-13 25-3 38c6 6 9 16 16 22s13 13 22 13s9 0 13-3c9-9 13-25 6-35zM279 288c9 19 25 9 44 3c41-13 73-16 114 0c19 6 28 3 38-6c6-9 0-22-22-35-44-22-111-16-152 3-16 6-32 19-22 35zm291 380c-13 0-22 9-22 22c0 0-3 76-28 120-6 9-3 25 9 32c3 3 6 3 9 3c9 0 16-3 19-13c28-54 32-136 32-139c3-13-6-25-19-25zm-383-3s-51-98-32-209c3-13-13-22-25-22s-19 13-22 25c-19 130 38 228 41 231c3 6 13 9 19 9s9 0 13-3c9-6 13-19 6-32zM48 532c0-13-9-22-22-25-13 0-22 9-25 22c0 6-6 149 89 275c3 6 13 9 19 9s9 0 13-3c9-6 13-22 3-32-82-114-76-247-76-247zm316-196c-9 6-16 9-16 19v6c0 9 9 19 19 19h16c9 0 19-9 19-19v-6c0-9-6-16-16-19-6-3-19-3-22 0zm361-22c-9-3-16-6-22 0l-6 3c-6 6-9 19-6 25l6 9c3 6 16 6 25 3l6-3c6-6 9-13 6-22c0-6-6-16-9-16z"></path>
  <path fill="#ff7719" d="M374 444s-117-117-120-120c-9-13-28-16-44-3-6 6-35 32-38 38-16 19-16 32-3 47c3 3 146 149 158 161s32 19 51 19s35-13 51-28c3-9 301-329 301-329c13-16 9-38 3-51-3-6-28-25-32-28-19-16-38-16-51 0-9 13-275 294-275 294z"></path>
</svg>
