<svg width="79" height="88" viewBox="0 0 79 88" fill="none" xmlns="http://www.w3.org/2000/svg">
<g id="fingerprint-check">
<path id="Vector" d="M19.7563 30.2394C20.2438 30.2394 20.7313 29.967 20.9751 29.6945C20.9751 29.6945 27.3126 22.6114 35.3563 21.5217C36.3313 21.2493 37.0626 20.432 37.0626 19.3423C37.0626 18.2526 35.8438 17.7078 34.8688 17.7078C25.8501 19.0699 19.0251 26.153 18.7813 26.4254C17.8063 27.2427 17.5626 28.6048 18.2938 29.4221C18.7813 29.967 19.2688 30.2394 19.7563 30.2394Z" fill="#046B99"/>
<path id="Vector_2" d="M59.9751 53.668C59.0001 53.9405 58.2688 55.0302 58.5126 56.3923C58.5126 56.3923 59.4876 61.296 59.0001 65.9272C58.7563 67.0169 59.4876 68.1066 60.7063 68.3791H60.9501C61.9251 68.3791 62.6563 67.5618 62.9001 66.4721C63.6313 61.0235 62.4126 55.575 62.4126 55.3026C62.1688 54.2129 61.1938 53.3956 59.9751 53.668Z" fill="#046B99"/>
<path id="Vector_3" d="M13.1751 44.9503C13.4188 44.9503 13.4188 44.9503 13.1751 44.9503C14.3938 44.9503 15.1251 44.1331 15.1251 42.7709C15.3688 38.4121 16.8313 36.2327 16.8313 36.2327C17.5626 35.4154 17.5626 34.0533 16.5876 33.236C15.8563 32.4187 14.6376 32.4187 13.9063 33.236C13.6626 33.5084 11.2251 36.5051 11.2251 42.4985C11.4688 43.8606 12.2001 44.6779 13.1751 44.9503Z" fill="#046B99"/>
<path id="Vector_4" d="M20.2439 19.6146C20.7314 19.6146 20.9751 19.3422 21.4626 19.0697C27.3126 14.1661 39.0126 7.62784 54.1251 16.8903C54.8564 17.1628 56.5626 17.98 57.2939 16.8903C58.5126 15.2558 56.8064 13.8936 56.3189 13.3488C43.4001 5.72085 30.2376 6.53813 19.0251 16.0731C18.2939 16.8903 18.0501 17.7076 18.7814 18.7973C19.0251 19.3422 19.7564 19.6146 20.2439 19.6146Z" fill="#046B99"/>
<path id="Vector_5" d="M51.9313 23.4287C52.9063 22.0666 51.9313 21.2493 51.2001 20.7044C49.4938 19.3423 45.5938 17.4353 42.4251 17.4353C40.9626 17.4353 40.4751 17.9802 40.2313 19.0699C39.9876 20.1596 40.7188 21.2493 41.6938 21.2493C44.8626 21.5217 46.3251 22.0666 48.5188 23.7011C49.2501 23.9735 51.2001 24.7908 51.9313 23.4287Z" fill="#046B99"/>
<path id="Vector_6" d="M31.9436 55.5751C31.6998 55.0302 31.2123 53.1232 29.7498 52.0335C28.2873 50.9438 27.5561 52.5784 27.7998 53.9405C28.0436 54.7578 28.2873 55.8475 28.5311 56.6648C29.0186 58.2993 29.5061 60.2063 29.5061 62.1133C29.5061 66.1997 25.6061 71.9207 24.3873 73.8276C23.6561 74.6449 23.8998 76.007 24.6311 76.5519C24.8748 76.8243 25.3623 77.0968 25.8498 77.0968C26.3373 77.0968 26.8248 76.8243 27.0686 76.5519C27.3123 76.2795 32.9186 68.924 33.1623 62.3857C33.1623 59.6615 32.4311 57.482 31.9436 55.5751Z" fill="#046B99"/>
<path id="Vector_7" d="M49.9812 49.854C48.7624 50.6713 49.2499 52.8507 49.4937 53.3955C50.9562 56.1198 51.1999 58.2992 51.1999 58.2992C51.4437 59.1165 52.4187 60.2062 53.3937 59.9338C54.6124 59.6614 54.6124 58.2992 54.6124 57.2095C54.6124 57.2095 54.3687 54.4853 52.4187 50.6713C52.1749 49.854 51.1999 48.7643 49.9812 49.854Z" fill="#046B99"/>
<path id="Vector_8" d="M44.8626 56.3923C43.8876 57.482 44.3751 59.1165 44.3751 59.389C45.8376 65.1099 44.8626 69.4687 41.4501 77.3691C40.9626 78.4588 41.4501 79.5485 42.1814 80.0934C42.4251 80.0934 42.6689 80.3658 42.9126 80.3658C43.6439 80.3658 44.1314 79.8209 44.6189 79.2761C48.5189 70.0136 49.7376 64.5651 47.3001 57.482V57.2095C47.0564 56.1198 45.8376 55.3026 44.8626 56.3923Z" fill="#046B99"/>
<path id="Vector_9" d="M67.0436 48.7642C66.0686 44.6778 64.6061 41.4087 62.8998 38.6845C61.6811 37.0499 60.7061 36.5051 59.7311 37.5948C58.7561 38.6845 59.2436 40.5915 59.9748 41.9536C61.4373 44.133 62.4123 46.5848 63.1436 49.854C63.3873 50.9437 64.3623 51.7609 65.5811 51.4885C66.7998 51.2161 67.2873 49.8539 67.0436 48.7642Z" fill="#046B99"/>
<path id="Vector_10" d="M39.0126 58.8442C37.5501 58.8442 37.0626 60.4788 37.0626 61.5685C37.0626 63.2031 37.0626 65.11 36.8189 67.017C35.8439 72.738 31.2126 79.0038 30.9689 79.0038C30.2376 79.8211 30.4814 81.1832 31.2126 81.7281C31.4564 82.0005 31.9439 82.2729 32.4314 82.2729C32.9189 82.2729 33.4064 82.0005 33.8939 81.4556C34.1376 81.1832 39.0126 74.3725 40.4751 67.5619C40.7189 65.3825 40.9626 63.2031 40.7189 61.0236C40.7189 60.2064 40.4751 58.8442 39.0126 58.8442Z" fill="#046B99"/>
<path id="Vector_11" d="M58.7564 47.4023C58.2689 46.3126 57.7814 45.4953 57.2939 44.9504C56.8064 44.1332 55.5876 43.3159 54.6126 44.4056C53.6376 45.4953 53.6377 46.585 54.3689 47.6747C54.8564 48.2196 55.1002 49.0368 55.5877 49.5817C56.0752 50.1265 56.5627 50.6714 57.2939 50.6714C57.5377 50.6714 58.0251 50.6714 58.2689 50.399C59.0001 49.5817 59.2439 48.2196 58.7564 47.4023Z" fill="#046B99"/>
<path id="Vector_12" d="M31.9439 29.6945C32.6752 31.329 33.8939 30.5118 35.3564 29.9669C38.5252 28.8772 40.9627 28.6048 44.1314 29.9669C45.5939 30.5118 46.3252 30.2393 47.0564 29.4221C47.5439 28.6048 47.0564 27.5151 45.3502 26.4254C41.9377 24.5184 36.8189 25.0632 33.6502 26.6978C32.4314 27.2426 31.2127 28.3323 31.9439 29.6945Z" fill="#046B99"/>
<path id="Vector_13" d="M54.3688 62.3857C53.3938 62.3857 52.6626 63.203 52.6626 64.2927C52.6626 64.2927 52.4188 70.831 50.4688 74.6449C49.9813 75.4622 50.2251 76.8243 51.2001 77.3692C51.4438 77.6416 51.6876 77.6416 51.9313 77.6416C52.6626 77.6416 53.1501 77.3692 53.3938 76.5519C55.5876 71.9207 55.8313 64.8376 55.8313 64.5652C56.0751 63.4754 55.3438 62.3857 54.3688 62.3857Z" fill="#046B99"/>
<path id="Vector_14" d="M24.8749 62.1132C24.8749 62.1132 20.9749 53.668 22.4374 44.1331C22.6812 43.0434 21.4624 42.2261 20.4874 42.2261C19.5124 42.2261 19.0249 43.3158 18.7812 44.4055C17.3187 55.575 21.7062 64.0202 21.9499 64.2926C22.1937 64.8375 22.9249 65.1099 23.4124 65.1099C23.6562 65.1099 24.1437 65.1099 24.3874 64.8375C25.1187 64.2926 25.3624 63.2029 24.8749 62.1132Z" fill="#046B99"/>
<path id="Vector_15" d="M14.1498 50.6714C14.1498 49.5816 13.4186 48.7644 12.4436 48.4919C11.4686 48.4919 10.7373 49.3092 10.4936 50.3989C10.4936 50.9438 10.0061 63.203 17.3186 74.1C17.5623 74.6449 18.2936 74.9173 18.7811 74.9173C19.2686 74.9173 19.5123 74.9173 19.7561 74.6449C20.4873 74.1 20.7311 72.7379 19.9998 71.9206C13.6623 62.1133 14.1498 50.6714 14.1498 50.6714Z" fill="#046B99"/>
<path id="Vector_16" d="M38.5249 33.781C37.7937 34.3258 37.3062 34.5983 37.3062 35.4155V35.9604C37.3062 36.7777 38.0374 37.595 38.7687 37.595H39.9874C40.7187 37.595 41.4499 36.7777 41.4499 35.9604V35.4155C41.4499 34.5983 40.9624 34.0534 40.2312 33.781C39.7437 33.5086 38.7687 33.5086 38.5249 33.781Z" fill="#046B99"/>
<path id="Vector_17" d="M66.3125 31.8739C65.5813 31.6015 65.0938 31.329 64.6063 31.8739L64.1188 32.1463C63.6313 32.6912 63.3875 33.7809 63.6313 34.3257L64.1188 35.143C64.3625 35.6879 65.3375 35.6879 66.0688 35.4154L66.5563 35.143C67.0438 34.5982 67.2875 34.0533 67.0438 33.236C67.0438 32.6912 66.5563 31.8739 66.3125 31.8739Z" fill="#046B99"/>
<path id="Vector_18" d="M39.2561 43.0433C39.2561 43.0433 30.2373 32.9635 29.9936 32.6911C29.2623 31.6014 27.7998 31.329 26.5811 32.4187C26.0936 32.9635 23.8998 35.1429 23.6561 35.6878C22.4373 37.3223 22.4373 38.412 23.4123 39.7742C23.6561 40.0466 34.6248 52.5782 35.5998 53.6679C36.5748 54.7576 38.0373 55.3025 39.4998 55.3025C40.4748 55.3025 42.1811 54.2128 43.3998 52.8507C43.6436 52.0334 66.5561 24.5183 66.5561 24.5183C67.5311 23.1562 67.2873 21.2492 66.7998 20.1595C66.5561 19.6146 64.6061 17.9801 64.3623 17.7076C62.8998 16.3455 61.4373 16.3455 60.4623 17.7076C59.7311 18.7973 39.2561 43.0433 39.2561 43.0433Z" fill="#046B99"/>
</g>
</svg>
