<svg width="79" height="78" viewBox="0 0 79 78" fill="none" xmlns="http://www.w3.org/2000/svg">
<g id="flowchart" clip-path="url(#clip0_882_7416)">
<path id="Vector" d="M73.5 48.2422V38.5938C73.5 35.9308 71.316 33.7695 68.625 33.7695H44.25V24.1211H58.875C61.566 24.1211 63.75 21.9598 63.75 19.2969V14.4727C63.75 11.8097 61.566 9.64844 58.875 9.64844H24.75C22.059 9.64844 19.875 11.8097 19.875 14.4727V19.2969C19.875 21.9598 22.059 24.1211 24.75 24.1211H39.375V33.7695H15C12.309 33.7695 10.125 35.9308 10.125 38.5938V48.2422C7.434 48.2422 5.25 50.4034 5.25 53.0664V62.7148C5.25 65.3778 7.434 67.5391 10.125 67.5391H15C17.691 67.5391 19.875 65.3778 19.875 62.7148V53.0664C19.875 50.4034 17.691 48.2422 15 48.2422V38.5938H39.375V48.2422C36.684 48.2422 34.5 50.4034 34.5 53.0664V62.7148C34.5 65.3778 36.684 67.5391 39.375 67.5391H44.25C46.941 67.5391 49.125 65.3778 49.125 62.7148V53.0664C49.125 50.4034 46.941 48.2422 44.25 48.2422V38.5938H68.625V48.2422C65.934 48.2422 63.75 50.4034 63.75 53.0664V62.7148C63.75 65.3778 65.934 67.5391 68.625 67.5391H73.5C76.191 67.5391 78.375 65.3778 78.375 62.7148V53.0664C78.375 50.4034 76.191 48.2422 73.5 48.2422Z" fill="#046B99"/>
</g>
<defs>
<clipPath id="clip0_882_7416">
<rect width="78" height="77.1875" fill="white" transform="translate(0.375)"/>
</clipPath>
</defs>
</svg>
