<svg width="78" height="78" viewBox="0 0 78 78" fill="none" xmlns="http://www.w3.org/2000/svg">
<g id="aod">
<mask id="mask0_882_7469" style="mask-type:alpha" maskUnits="userSpaceOnUse" x="0" y="0" width="78" height="78">
<rect id="Bounding box" width="78" height="78" fill="white"/>
</mask>
<g mask="url(#mask0_882_7469)">
<path id="aod_2" d="M29.25 47.125V42.25H48.75V47.125H29.25ZM26 37.375V32.5H52V37.375H26ZM22.75 74.75C20.9625 74.75 19.4323 74.1135 18.1594 72.8406C16.8865 71.5677 16.25 70.0375 16.25 68.25V9.75C16.25 7.9625 16.8865 6.43229 18.1594 5.15938C19.4323 3.88646 20.9625 3.25 22.75 3.25H55.25C57.0375 3.25 58.5677 3.88646 59.8406 5.15938C61.1135 6.43229 61.75 7.9625 61.75 9.75V68.25C61.75 70.0375 61.1135 71.5677 59.8406 72.8406C58.5677 74.1135 57.0375 74.75 55.25 74.75H22.75ZM22.75 65V68.25H55.25V65H22.75ZM22.75 58.5H55.25V19.5H22.75V58.5ZM22.75 13H55.25V9.75H22.75V13Z" fill="#046B99"/>
</g>
</g>
</svg>
