<svg width="79" height="78" viewBox="0 0 79 78" fill="none" xmlns="http://www.w3.org/2000/svg">
<g id="encrypted">
<mask id="mask0_882_7475" style="mask-type:alpha" maskUnits="userSpaceOnUse" x="0" y="0" width="79" height="78">
<rect id="Bounding box" x="0.5" width="78" height="78" fill="white"/>
</mask>
<g mask="url(#mask0_882_7475)">
<path id="encrypted_2" d="M34.625 48.75H44.375L42.5063 38.2688C43.5896 37.7271 44.4427 36.9417 45.0656 35.9125C45.6885 34.8833 46 33.7458 46 32.5C46 30.7125 45.3635 29.1823 44.0906 27.9094C42.8177 26.6365 41.2875 26 39.5 26C37.7125 26 36.1823 26.6365 34.9094 27.9094C33.6365 29.1823 33 30.7125 33 32.5C33 33.7458 33.3115 34.8833 33.9344 35.9125C34.5573 36.9417 35.4104 37.7271 36.4938 38.2688L34.625 48.75ZM39.5 71.5C31.9708 69.6042 25.7552 65.2844 20.8531 58.5406C15.951 51.7969 13.5 44.3083 13.5 36.075V16.25L39.5 6.5L65.5 16.25V36.075C65.5 44.3083 63.049 51.7969 58.1469 58.5406C53.2448 65.2844 47.0292 69.6042 39.5 71.5ZM39.5 64.675C45.1333 62.8875 49.7917 59.3125 53.475 53.95C57.1583 48.5875 59 42.6292 59 36.075V20.7188L39.5 13.4062L20 20.7188V36.075C20 42.6292 21.8417 48.5875 25.525 53.95C29.2083 59.3125 33.8667 62.8875 39.5 64.675Z" fill="#046B99"/>
</g>
</g>
</svg>
