<svg width="79" height="77" viewBox="0 0 79 77" fill="none" xmlns="http://www.w3.org/2000/svg">
<g id="pro-services">
<path id="Vector" d="M51.5623 38.8507C49.8561 37.6516 47.9061 36.9321 45.4686 36.9321C33.0373 36.9321 30.5998 53.7194 30.1123 58.7556C30.1123 58.7556 36.4498 63.552 45.4686 63.552C54.4873 63.552 59.8498 58.7556 59.8498 58.7556C59.6061 57.0769 59.3623 54.1991 58.6311 50.8416C57.6561 46.5249 55.4623 41.4887 51.5623 38.8507Z" fill="#046B99"/>
<path id="Vector_2" d="M45.7126 35.0134C50.5876 35.0134 54.7313 30.9365 54.7313 26.1401C54.7313 21.3438 50.5876 17.2668 45.7126 17.2668C40.8376 17.2668 36.6938 21.3438 36.6938 26.1401C36.6938 30.9365 40.5938 35.0134 45.7126 35.0134Z" fill="#046B99"/>
<path id="Vector_3" d="M64.2377 26.3799C68.8689 26.3799 72.5252 22.7826 72.5252 18.2261C72.5252 13.6695 68.8689 10.0723 64.2377 10.0723C59.6064 10.0723 55.9502 13.6695 55.9502 18.2261C55.9502 22.7826 59.6064 26.3799 64.2377 26.3799Z" fill="#046B99"/>
<path id="Vector_4" d="M64.2374 28.5383C57.4124 28.5383 54.4874 33.3347 53.0249 36.4523C55.2187 37.8912 60.0936 41.9682 62.2874 53.4795C62.5311 53.4795 63.0187 53.4795 63.9937 53.4795C72.2812 53.4795 77.3999 48.9229 77.3999 48.9229C77.1562 44.3664 75.2061 28.5383 64.2374 28.5383Z" fill="#046B99"/>
<path id="Vector_5" d="M9.6375 36.2126H30.6C31.3313 36.2126 32.0625 35.4931 32.0625 34.7737C32.0625 34.0542 31.3313 33.5746 30.6 33.5746H9.6375C9.15 31.8959 7.44375 30.6968 5.7375 30.6968C3.54375 30.6968 1.59375 32.6153 1.59375 34.7737C1.59375 36.9321 3.54375 38.8506 5.7375 38.8506C7.44375 39.0904 8.90625 37.8913 9.6375 36.2126Z" fill="#046B99"/>
<path id="Vector_6" d="M9.6374 12.7105V20.1448C9.6374 24.7014 12.8062 27.5792 17.6812 27.5792H27.4312C28.1624 27.5792 28.6499 27.0996 28.6499 26.3801C28.6499 25.6607 28.1624 25.181 27.4312 25.181H17.6812C15.4874 25.181 12.0749 24.4616 12.0749 20.1448V12.7105C13.7812 11.991 14.9999 10.5521 14.9999 8.63356C14.9999 6.47519 13.0499 4.55664 10.8562 4.55664C8.6624 4.55664 6.7124 6.47519 6.7124 8.63356C6.7124 10.5521 7.93115 11.991 9.6374 12.7105Z" fill="#046B99"/>
<path id="Vector_7" d="M27.6748 42.208H17.9248C13.0498 42.208 9.88105 45.0858 9.88105 49.6424V57.0768C8.1748 57.5564 6.95605 59.2351 6.95605 60.9139C6.95605 63.0722 8.90605 64.9908 11.0998 64.9908C13.2936 64.9908 14.9998 63.312 14.9998 61.1537C14.9998 59.2351 13.7811 57.7962 12.0748 57.3166V49.8822C12.0748 45.3257 15.4873 44.846 17.6811 44.846H27.4311C28.1623 44.846 28.6498 44.3664 28.6498 43.6469C28.6498 42.9275 28.1623 42.208 27.6748 42.208Z" fill="#046B99"/>
</g>
</svg>
