<svg width="86" height="95" viewBox="0 0 86 95" fill="none" xmlns="http://www.w3.org/2000/svg">
<g id="users-dialog">
<path id="Vector" d="M20.8281 29.0938C20.0312 29.0938 19.5 29.0938 18.7031 29.0938C17.9062 29.0938 17.1094 29.0938 16.5781 29.0938C6.75 29.9844 2.5 36.8125 1.70312 49.875H35.7031C34.375 36.8125 29.8594 29.9844 20.8281 29.0938Z" fill="#046B99"/>
<path id="Vector_2" d="M69.7031 73.9219C68.9063 73.9219 68.375 73.9219 67.5781 73.9219C66.7812 73.9219 65.9844 73.9219 65.4531 73.9219C55.625 74.8125 51.375 81.6406 50.5781 94.7031H84.5781C83.5156 81.9375 78.7344 74.8125 69.7031 73.9219Z" fill="#046B99"/>
<path id="Vector_3" d="M44.2031 62.0469H37.5625L43.1406 68.2813H28C23.4844 68.2813 20.8281 66.2031 20.8281 62.0469V55.5156H16.3125V62.0469C16.3125 67.0938 19.5 73.3281 28 73.3281H43.1406L37.5625 79.2656H44.2031L51.9062 70.6563L44.2031 62.0469Z" fill="#046B99"/>
<path id="Vector_4" d="M47.9219 35.0313L42.3438 28.7969H57.4844C63.8594 28.7969 64.6562 32.9531 64.6562 35.0313V41.5625H69.1719V35.0313C69.1719 29.9844 65.9844 23.75 57.4844 23.75H42.3438L47.9219 17.8125H41.2812L33.5781 26.4219L41.2812 35.0313H47.9219Z" fill="#046B99"/>
<path id="Vector_5" d="M56.9531 59.6719C56.9531 66.2031 61.7344 71.5469 67.5781 71.5469C73.1562 71.5469 77.6719 66.5 78.2031 60.5625C78.2031 60.2656 78.2031 60.2656 78.2031 59.9688C78.2031 59.9688 78.2031 59.9688 78.2031 59.6719C78.2031 59.6719 78.2031 59.6719 78.2031 59.375C78.2031 59.0781 78.2031 59.0781 78.2031 58.7813C78.2031 57.8906 77.9375 57 77.6719 56.1094C77.6719 55.8125 77.6719 55.8125 77.4062 55.5156C75.8125 51.0625 72.0938 47.7969 67.5781 47.7969C61.7344 47.7969 56.9531 53.1406 56.9531 59.6719Z" fill="#046B99"/>
<path id="Vector_6" d="M18.4375 26.4219C24.0156 26.4219 28.7969 21.375 28.7969 14.8438C28.7969 13.0625 28.5312 11.5781 28 10.0938C28 9.79688 27.7344 9.79688 27.7344 9.5C27.7344 9.5 27.7344 9.5 27.4687 9.20312C25.6094 5.64063 22.4219 3.26562 18.4375 3.26562C12.8594 3.5625 8.34375 8.60938 8.34375 14.8438C8.34375 21.0781 12.8594 26.4219 18.4375 26.4219Z" fill="#046B99"/>
</g>
</svg>
